<mxfile host="app.diagrams.net" modified="2023-01-13T06:15:04.843Z" agent="5.0 (Windows NT 10.0; WOW64) AppleWebKit/537.36 (KHTML, like Gecko) Chrome/104.0.0.0 Safari/537.36" version="20.7.4" etag="fOwTWgxNgPR-2coy4PI0" type="github">
  <diagram id="A1XmAz3jL9wZN6bbhGnA" name="第 1 页">
    <mxGraphModel dx="945" dy="570" grid="1" gridSize="10" guides="1" tooltips="1" connect="1" arrows="1" fold="1" page="1" pageScale="1" pageWidth="827" pageHeight="1169" math="0" shadow="0">
      <root>
        <mxCell id="0" />
        <mxCell id="1" parent="0" />
        <mxCell id="0r8a32Tf7__COB9FmSif-3" value="" style="rounded=0;whiteSpace=wrap;html=1;fillColor=#ffe6cc;strokeColor=#d79b00;" vertex="1" parent="1">
          <mxGeometry x="70" y="249" width="260" height="141" as="geometry" />
        </mxCell>
        <mxCell id="0r8a32Tf7__COB9FmSif-5" value="访问层" style="text;html=1;strokeColor=none;fillColor=none;align=center;verticalAlign=middle;whiteSpace=wrap;rounded=0;" vertex="1" parent="1">
          <mxGeometry y="202" width="60" height="30" as="geometry" />
        </mxCell>
        <mxCell id="0r8a32Tf7__COB9FmSif-6" value="集团官网" style="rounded=1;whiteSpace=wrap;html=1;" vertex="1" parent="1">
          <mxGeometry x="100" y="274" width="220" height="30" as="geometry" />
        </mxCell>
        <mxCell id="0r8a32Tf7__COB9FmSif-8" value="医院官网1" style="rounded=1;whiteSpace=wrap;html=1;" vertex="1" parent="1">
          <mxGeometry x="100" y="314" width="100" height="30" as="geometry" />
        </mxCell>
        <mxCell id="0r8a32Tf7__COB9FmSif-9" value="医院官网2" style="rounded=1;whiteSpace=wrap;html=1;" vertex="1" parent="1">
          <mxGeometry x="220" y="314" width="100" height="30" as="geometry" />
        </mxCell>
        <mxCell id="0r8a32Tf7__COB9FmSif-10" value="医院官网..." style="rounded=1;whiteSpace=wrap;html=1;" vertex="1" parent="1">
          <mxGeometry x="100" y="354" width="100" height="30" as="geometry" />
        </mxCell>
        <mxCell id="0r8a32Tf7__COB9FmSif-11" value="医院官网N" style="rounded=1;whiteSpace=wrap;html=1;" vertex="1" parent="1">
          <mxGeometry x="220" y="354" width="100" height="30" as="geometry" />
        </mxCell>
        <mxCell id="0r8a32Tf7__COB9FmSif-12" value="" style="rounded=0;whiteSpace=wrap;html=1;fillColor=#dae8fc;strokeColor=#6c8ebf;" vertex="1" parent="1">
          <mxGeometry x="70" y="192" width="560" height="50" as="geometry" />
        </mxCell>
        <mxCell id="0r8a32Tf7__COB9FmSif-13" value="web浏览器" style="rounded=1;whiteSpace=wrap;html=1;" vertex="1" parent="1">
          <mxGeometry x="100" y="202" width="360" height="30" as="geometry" />
        </mxCell>
        <mxCell id="0r8a32Tf7__COB9FmSif-14" value="用户层" style="text;html=1;strokeColor=none;fillColor=none;align=center;verticalAlign=middle;whiteSpace=wrap;rounded=0;" vertex="1" parent="1">
          <mxGeometry y="120" width="60" height="30" as="geometry" />
        </mxCell>
        <mxCell id="0r8a32Tf7__COB9FmSif-15" value="" style="rounded=0;whiteSpace=wrap;html=1;fillColor=#fff2cc;strokeColor=#d6b656;" vertex="1" parent="1">
          <mxGeometry x="70" y="122" width="560" height="60" as="geometry" />
        </mxCell>
        <mxCell id="0r8a32Tf7__COB9FmSif-16" value="" style="shape=actor;whiteSpace=wrap;html=1;" vertex="1" parent="1">
          <mxGeometry x="200" y="129" width="20" height="20" as="geometry" />
        </mxCell>
        <mxCell id="0r8a32Tf7__COB9FmSif-17" value="" style="shape=actor;whiteSpace=wrap;html=1;" vertex="1" parent="1">
          <mxGeometry x="190" y="139" width="20" height="20" as="geometry" />
        </mxCell>
        <mxCell id="0r8a32Tf7__COB9FmSif-18" value="" style="shape=actor;whiteSpace=wrap;html=1;" vertex="1" parent="1">
          <mxGeometry x="213" y="139" width="20" height="20" as="geometry" />
        </mxCell>
        <mxCell id="0r8a32Tf7__COB9FmSif-20" value="用户" style="text;html=1;strokeColor=none;fillColor=none;align=center;verticalAlign=middle;whiteSpace=wrap;rounded=0;" vertex="1" parent="1">
          <mxGeometry x="180" y="160" width="60" height="20" as="geometry" />
        </mxCell>
        <mxCell id="0r8a32Tf7__COB9FmSif-21" value="" style="shape=actor;whiteSpace=wrap;html=1;" vertex="1" parent="1">
          <mxGeometry x="380" y="128" width="35" height="32" as="geometry" />
        </mxCell>
        <mxCell id="0r8a32Tf7__COB9FmSif-24" value="运营、管理人员" style="text;html=1;strokeColor=none;fillColor=none;align=center;verticalAlign=middle;whiteSpace=wrap;rounded=0;" vertex="1" parent="1">
          <mxGeometry x="332" y="159" width="140" height="20" as="geometry" />
        </mxCell>
        <mxCell id="0r8a32Tf7__COB9FmSif-25" value="" style="verticalLabelPosition=bottom;verticalAlign=top;html=1;shape=mxgraph.basic.6_point_star" vertex="1" parent="1">
          <mxGeometry x="538" y="129" width="34.44" height="31" as="geometry" />
        </mxCell>
        <mxCell id="0r8a32Tf7__COB9FmSif-26" value="B端接入" style="text;html=1;strokeColor=none;fillColor=none;align=center;verticalAlign=middle;whiteSpace=wrap;rounded=0;" vertex="1" parent="1">
          <mxGeometry x="519" y="160" width="80" height="20" as="geometry" />
        </mxCell>
        <mxCell id="0r8a32Tf7__COB9FmSif-27" value="服务调用" style="rounded=1;whiteSpace=wrap;html=1;" vertex="1" parent="1">
          <mxGeometry x="500" y="202" width="120" height="30" as="geometry" />
        </mxCell>
        <mxCell id="0r8a32Tf7__COB9FmSif-28" value="" style="rounded=0;whiteSpace=wrap;html=1;fillColor=#f5f5f5;strokeColor=#666666;fontColor=#333333;" vertex="1" parent="1">
          <mxGeometry x="70" y="400" width="260" height="100" as="geometry" />
        </mxCell>
        <mxCell id="0r8a32Tf7__COB9FmSif-29" value="应用层" style="text;html=1;strokeColor=none;fillColor=none;align=center;verticalAlign=middle;whiteSpace=wrap;rounded=0;" vertex="1" parent="1">
          <mxGeometry y="259" width="60" height="30" as="geometry" />
        </mxCell>
        <mxCell id="0r8a32Tf7__COB9FmSif-30" value="" style="rounded=0;whiteSpace=wrap;html=1;fillColor=#ffe6cc;strokeColor=#d79b00;" vertex="1" parent="1">
          <mxGeometry x="340" y="249" width="290" height="141" as="geometry" />
        </mxCell>
        <mxCell id="0r8a32Tf7__COB9FmSif-7" value="登录" style="rounded=1;whiteSpace=wrap;html=1;" vertex="1" parent="1">
          <mxGeometry x="356" y="274" width="81" height="30" as="geometry" />
        </mxCell>
        <mxCell id="0r8a32Tf7__COB9FmSif-31" value="站点管理" style="rounded=1;whiteSpace=wrap;html=1;" vertex="1" parent="1">
          <mxGeometry x="447" y="274" width="80" height="30" as="geometry" />
        </mxCell>
        <mxCell id="0r8a32Tf7__COB9FmSif-32" value="日志管理" style="rounded=1;whiteSpace=wrap;html=1;" vertex="1" parent="1">
          <mxGeometry x="537" y="274" width="81" height="30" as="geometry" />
        </mxCell>
        <mxCell id="0r8a32Tf7__COB9FmSif-33" value="权限管理" style="rounded=1;whiteSpace=wrap;html=1;" vertex="1" parent="1">
          <mxGeometry x="356" y="314" width="80" height="30" as="geometry" />
        </mxCell>
        <mxCell id="0r8a32Tf7__COB9FmSif-34" value="消息中心" style="rounded=1;whiteSpace=wrap;html=1;" vertex="1" parent="1">
          <mxGeometry x="447" y="314" width="80" height="30" as="geometry" />
        </mxCell>
        <mxCell id="0r8a32Tf7__COB9FmSif-35" value="角色管理" style="rounded=1;whiteSpace=wrap;html=1;" vertex="1" parent="1">
          <mxGeometry x="537" y="314" width="81" height="30" as="geometry" />
        </mxCell>
        <mxCell id="0r8a32Tf7__COB9FmSif-36" value="用户管理" style="rounded=1;whiteSpace=wrap;html=1;" vertex="1" parent="1">
          <mxGeometry x="356" y="354" width="80" height="30" as="geometry" />
        </mxCell>
        <mxCell id="0r8a32Tf7__COB9FmSif-37" value="......" style="rounded=1;whiteSpace=wrap;html=1;" vertex="1" parent="1">
          <mxGeometry x="447" y="354" width="80" height="30" as="geometry" />
        </mxCell>
        <mxCell id="0r8a32Tf7__COB9FmSif-38" value="门户系统" style="text;html=1;strokeColor=none;fillColor=none;align=center;verticalAlign=middle;whiteSpace=wrap;rounded=0;" vertex="1" parent="1">
          <mxGeometry x="180" y="247" width="60" height="30" as="geometry" />
        </mxCell>
        <mxCell id="0r8a32Tf7__COB9FmSif-39" value="基础服务系统" style="text;html=1;strokeColor=none;fillColor=none;align=center;verticalAlign=middle;whiteSpace=wrap;rounded=0;" vertex="1" parent="1">
          <mxGeometry x="420" y="247" width="110" height="30" as="geometry" />
        </mxCell>
        <mxCell id="0r8a32Tf7__COB9FmSif-40" value="服务层" style="text;html=1;strokeColor=none;fillColor=none;align=center;verticalAlign=middle;whiteSpace=wrap;rounded=0;" vertex="1" parent="1">
          <mxGeometry y="400" width="60" height="30" as="geometry" />
        </mxCell>
        <mxCell id="0r8a32Tf7__COB9FmSif-41" value="资讯服务" style="rounded=1;whiteSpace=wrap;html=1;" vertex="1" parent="1">
          <mxGeometry x="100" y="425" width="100" height="30" as="geometry" />
        </mxCell>
        <mxCell id="0r8a32Tf7__COB9FmSif-42" value="客服服务" style="rounded=1;whiteSpace=wrap;html=1;" vertex="1" parent="1">
          <mxGeometry x="220" y="425" width="100" height="30" as="geometry" />
        </mxCell>
        <mxCell id="0r8a32Tf7__COB9FmSif-44" value="......." style="rounded=1;whiteSpace=wrap;html=1;" vertex="1" parent="1">
          <mxGeometry x="100" y="465" width="100" height="30" as="geometry" />
        </mxCell>
        <mxCell id="0r8a32Tf7__COB9FmSif-45" value="业务服务" style="text;html=1;strokeColor=none;fillColor=none;align=center;verticalAlign=middle;whiteSpace=wrap;rounded=0;" vertex="1" parent="1">
          <mxGeometry x="180" y="397" width="60" height="30" as="geometry" />
        </mxCell>
        <mxCell id="0r8a32Tf7__COB9FmSif-46" value="" style="rounded=0;whiteSpace=wrap;html=1;fillColor=#f5f5f5;strokeColor=#666666;fontColor=#333333;" vertex="1" parent="1">
          <mxGeometry x="340" y="400" width="290" height="100" as="geometry" />
        </mxCell>
        <mxCell id="0r8a32Tf7__COB9FmSif-47" value="用户服务" style="rounded=1;whiteSpace=wrap;html=1;" vertex="1" parent="1">
          <mxGeometry x="370" y="425" width="100" height="30" as="geometry" />
        </mxCell>
        <mxCell id="0r8a32Tf7__COB9FmSif-48" value="消息中心" style="rounded=1;whiteSpace=wrap;html=1;" vertex="1" parent="1">
          <mxGeometry x="490" y="425" width="100" height="30" as="geometry" />
        </mxCell>
        <mxCell id="0r8a32Tf7__COB9FmSif-49" value="文件服务" style="rounded=1;whiteSpace=wrap;html=1;" vertex="1" parent="1">
          <mxGeometry x="370" y="465" width="100" height="30" as="geometry" />
        </mxCell>
        <mxCell id="0r8a32Tf7__COB9FmSif-50" value="基础服务" style="text;html=1;strokeColor=none;fillColor=none;align=center;verticalAlign=middle;whiteSpace=wrap;rounded=0;" vertex="1" parent="1">
          <mxGeometry x="450" y="397" width="60" height="30" as="geometry" />
        </mxCell>
        <mxCell id="0r8a32Tf7__COB9FmSif-51" value="......." style="rounded=1;whiteSpace=wrap;html=1;" vertex="1" parent="1">
          <mxGeometry x="490" y="465" width="100" height="30" as="geometry" />
        </mxCell>
        <mxCell id="0r8a32Tf7__COB9FmSif-52" value="服务层" style="text;html=1;strokeColor=none;fillColor=none;align=center;verticalAlign=middle;whiteSpace=wrap;rounded=0;" vertex="1" parent="1">
          <mxGeometry y="520" width="60" height="30" as="geometry" />
        </mxCell>
        <mxCell id="0r8a32Tf7__COB9FmSif-53" value="" style="rounded=0;whiteSpace=wrap;html=1;fillColor=#dae8fc;strokeColor=#6c8ebf;" vertex="1" parent="1">
          <mxGeometry x="70" y="510" width="660" height="80" as="geometry" />
        </mxCell>
        <mxCell id="0r8a32Tf7__COB9FmSif-54" value="" style="shape=cylinder3;whiteSpace=wrap;html=1;boundedLbl=1;backgroundOutline=1;size=15;" vertex="1" parent="1">
          <mxGeometry x="150" y="520" width="40" height="50" as="geometry" />
        </mxCell>
        <mxCell id="0r8a32Tf7__COB9FmSif-55" value="基础数据" style="text;html=1;strokeColor=none;fillColor=none;align=center;verticalAlign=middle;whiteSpace=wrap;rounded=0;" vertex="1" parent="1">
          <mxGeometry x="140" y="564" width="60" height="30" as="geometry" />
        </mxCell>
        <mxCell id="0r8a32Tf7__COB9FmSif-56" value="" style="shape=cube;whiteSpace=wrap;html=1;boundedLbl=1;backgroundOutline=1;darkOpacity=0.05;darkOpacity2=0.1;size=10;" vertex="1" parent="1">
          <mxGeometry x="320" y="530" width="40" height="40" as="geometry" />
        </mxCell>
        <mxCell id="0r8a32Tf7__COB9FmSif-57" value="缓存数据" style="text;html=1;strokeColor=none;fillColor=none;align=center;verticalAlign=middle;whiteSpace=wrap;rounded=0;" vertex="1" parent="1">
          <mxGeometry x="310" y="564" width="60" height="30" as="geometry" />
        </mxCell>
        <mxCell id="0r8a32Tf7__COB9FmSif-58" value="" style="shape=card;whiteSpace=wrap;html=1;" vertex="1" parent="1">
          <mxGeometry x="490" y="530" width="32" height="40" as="geometry" />
        </mxCell>
        <mxCell id="0r8a32Tf7__COB9FmSif-59" value="文件存储" style="text;html=1;strokeColor=none;fillColor=none;align=center;verticalAlign=middle;whiteSpace=wrap;rounded=0;" vertex="1" parent="1">
          <mxGeometry x="476" y="564" width="60" height="30" as="geometry" />
        </mxCell>
        <mxCell id="0r8a32Tf7__COB9FmSif-60" value="" style="rounded=0;whiteSpace=wrap;html=1;fillColor=#d5e8d4;strokeColor=#82b366;" vertex="1" parent="1">
          <mxGeometry x="640" y="122" width="90" height="378" as="geometry" />
        </mxCell>
        <mxCell id="0r8a32Tf7__COB9FmSif-61" value="安全管理" style="text;html=1;strokeColor=none;fillColor=none;align=center;verticalAlign=middle;whiteSpace=wrap;rounded=0;" vertex="1" parent="1">
          <mxGeometry x="655" y="134" width="60" height="30" as="geometry" />
        </mxCell>
        <mxCell id="0r8a32Tf7__COB9FmSif-62" value="配置管理&lt;br&gt;&lt;br&gt;安全审计&lt;br&gt;&lt;br&gt;操作日志" style="rounded=1;whiteSpace=wrap;html=1;" vertex="1" parent="1">
          <mxGeometry x="650" y="192" width="70" height="128" as="geometry" />
        </mxCell>
        <mxCell id="0r8a32Tf7__COB9FmSif-63" value="用户管理&lt;br&gt;&lt;br&gt;权限管理&lt;br&gt;&lt;br&gt;日志分析" style="rounded=1;whiteSpace=wrap;html=1;" vertex="1" parent="1">
          <mxGeometry x="650" y="337" width="70" height="128" as="geometry" />
        </mxCell>
      </root>
    </mxGraphModel>
  </diagram>
</mxfile>
